<svg xmlns="http://www.w3.org/2000/svg" viewBox="0 0 230 52" role="img" aria-labelledby="title"><title id="title">Deliveroo</title><path fill="#181614" d="M7 11h16.5c8.5 0 14.4 5.4 14.4 13.9S32 39 23.5 39H7V11Zm15.9 22.2c4.9 0 8.1-3.1 8.1-8.3s-3.2-8.2-8.1-8.2h-9.2v16.5h9.2ZM42.5 11h25.1v5.6H49.2v5.3h16.4v5.4H49.2v6.1h18.9V39H42.5V11Zm31.2 0h6.8v22.1h16.9V39H73.7V11Zm28.2 0h6.8v28h-6.8V11Zm11.9 0h7.4l8.2 19.9 8.2-19.9h7.2L132.9 39h-7.1l-12-28Zm35.4 0h25.1v5.6h-18.4v5.3h16.4v5.4h-16.4v6.1h18.9V39h-25.6V11Zm31.2 0h14.2c6.8 0 11.3 3.8 11.3 9.7 0 3.9-2 6.9-5.4 8.5l6.4 9.8h-7.6l-5.5-8.6h-6.6V39h-6.8V11Zm13.7 13.8c3 0 4.9-1.5 4.9-4s-1.9-4-4.9-4h-6.9v8h6.9Z"/><path fill="#181614" d="M210.8 39.5c-7.9 0-13.8-6.1-13.8-14.5s5.9-14.5 13.8-14.5 13.8 6.1 13.8 14.5-5.9 14.5-13.8 14.5Zm0-6.1c4.1 0 7-3.4 7-8.4s-2.9-8.4-7-8.4-7 3.4-7 8.4 2.9 8.4 7 8.4Z"/></svg>