<svg xmlns="http://www.w3.org/2000/svg" viewBox="0 0 220 52" role="img" aria-labelledby="title"><title id="title">MoonPay</title><path fill="#181614" d="M17.7 38.5c-6.7 0-11.9-5.3-11.9-12.5S11 13.5 17.7 13.5c3.9 0 7.2 1.7 9.3 4.5 2.1-2.8 5.4-4.5 9.3-4.5 6.7 0 11.9 5.3 11.9 12.5s-5.2 12.5-11.9 12.5c-3.9 0-7.2-1.7-9.3-4.5-2.1 2.8-5.4 4.5-9.3 4.5Zm0-5.8c3.4 0 5.9-2.8 5.9-6.7s-2.5-6.7-5.9-6.7-5.9 2.8-5.9 6.7 2.5 6.7 5.9 6.7Zm18.6 0c3.4 0 5.9-2.8 5.9-6.7s-2.5-6.7-5.9-6.7-5.9 2.8-5.9 6.7 2.5 6.7 5.9 6.7Z"/><path fill="#181614" d="M64.5 14h7.1l7.4 13.3L86.5 14h7.1v24h-6.1V23.8l-6.5 11.5h-4l-6.5-11.5V38h-6V14Zm44.6 24.5c-7.1 0-12.5-5.3-12.5-12.5s5.4-12.5 12.5-12.5 12.5 5.3 12.5 12.5-5.4 12.5-12.5 12.5Zm0-5.7c3.8 0 6.3-2.8 6.3-6.8s-2.5-6.8-6.3-6.8-6.3 2.8-6.3 6.8 2.5 6.8 6.3 6.8Zm26.8 5.7c-7.1 0-12.5-5.3-12.5-12.5s5.4-12.5 12.5-12.5 12.5 5.3 12.5 12.5-5.4 12.5-12.5 12.5Zm0-5.7c3.8 0 6.3-2.8 6.3-6.8s-2.5-6.8-6.3-6.8-6.3 2.8-6.3 6.8 2.5 6.8 6.3 6.8ZM152 14h6.2l10.2 13.8V14h6.1v24h-5.9l-10.5-14.2V38H152V14Zm27.5 0h10.7c5.7 0 9.5 3.4 9.5 8.6 0 5.1-3.8 8.6-9.5 8.6h-4.4V38h-6.3V14Zm10.2 11.8c2.3 0 3.8-1.2 3.8-3.2 0-2.1-1.5-3.2-3.8-3.2h-3.9v6.4h3.9Zm20.2-11.8h6.5l9.6 24h-6.6l-1.7-4.6h-9.1l-1.7 4.6h-6.5l9.5-24Zm6 14.2-2.8-7.7-2.8 7.7h5.6Z"/></svg>