<svg xmlns="http://www.w3.org/2000/svg" width="174" height="37" fill="none" viewBox="0 0 174 37"><g fill="#242424" clip-path="url(#a)"><path d="M41.108 6.05c-6.137 0-10.423 4.498-10.423 10.94 0 6.44 4.288 10.899 10.423 10.899 6.136 0 10.463-4.483 10.463-10.9 0-6.416-4.402-10.938-10.463-10.938m0 16.628c-2.775 0-4.501-2.179-4.501-5.689s1.767-5.728 4.501-5.728 4.462 2.196 4.462 5.728c0 3.533-1.709 5.69-4.462 5.69M21.614 6.052a7.86 7.86 0 0 0-5.81 2.518.215.215 0 0 1-.337-.02c-.472-.666-2.043-2.496-5.081-2.496-2.148 0-3.84 1.458-4.55 2.524a.216.216 0 0 1-.386-.064l-.5-1.761a.36.36 0 0 0-.347-.262H.362c-.2 0-.362.162-.362.362v20.243c0 .2.162.362.362.362h5.054c.2 0 .362-.162.362-.362V15.253c0-2.337 1.17-3.789 3.057-3.789 1.744 0 2.707 1.121 2.707 3.155v12.477c0 .2.162.362.362.362h5.052c.2 0 .362-.162.362-.362V15.134c0-2.297 1.156-3.67 3.096-3.67 1.744 0 2.707 1.136 2.707 3.194v12.438c0 .2.162.362.362.362h5.054c.2 0 .362-.162.362-.362V13.348c0-4.296-2.992-7.296-7.277-7.296zM75.983 6.05c-6.138 0-10.423 4.498-10.423 10.94 0 6.44 4.287 10.899 10.423 10.899s10.463-4.483 10.463-10.9c0-6.416-4.402-10.938-10.463-10.938m0 16.628c-2.776 0-4.501-2.179-4.501-5.689s1.767-5.728 4.501-5.728 4.462 2.196 4.462 5.728c0 3.533-1.709 5.69-4.462 5.69M64.394 22.614a.287.287 0 0 0-.39-.18c-.427.186-1.114.42-1.858.42-1.04 0-1.653-.484-1.82-1.44a3 3 0 0 1-.035-.27v-.034a3 3 0 0 1-.014-.303v-9.409c0-.12.098-.216.216-.216h4.408c.2 0 .362-.162.362-.362V6.847c0-.2-.162-.362-.362-.362h-4.408a.216.216 0 0 1-.216-.216V.904a.287.287 0 0 0-.343-.282l-5.198 1a.29.29 0 0 0-.235.283V6.27c0 .12-.098.216-.216.216h-2.26c-.2 0-.362.162-.362.362v3.973c0 .2.162.362.361.362h2.26c.121 0 .217.098.217.216v10.478a10 10 0 0 0 .04.83l.006.07q.015.162.037.32.022.164.052.327.019.101.041.205c.026.117.05.231.082.348l.004.014c.698 2.551 2.767 3.899 5.982 3.899 2.538 0 4.106-.996 4.657-1.42a.285.285 0 0 0 .1-.316l-1.112-3.54zM132.432 6.487h-5.102a.36.36 0 0 0-.354.283l-2.967 13.226c-.033.15-.247.152-.281 0l-3.123-13.232a.364.364 0 0 0-.351-.279h-5.705a.36.36 0 0 0-.352.279l-3.056 13.18c-.035.15-.25.15-.283 0L107.976 6.77a.36.36 0 0 0-.353-.285h-5.412a.288.288 0 0 0-.279.364l5.383 20.335a.36.36 0 0 0 .349.268h6.406a.36.36 0 0 0 .352-.28l2.757-12.093c.033-.15.247-.15.281 0l2.767 12.092a.36.36 0 0 0 .351.281h6.396a.36.36 0 0 0 .349-.268l5.384-20.335a.29.29 0 0 0-.279-.364zM152.054 23.613c-1.007-.243-1.764-.702-1.764-2.152v-7.587l-.008-.222v-1.275c0-1.06-.364-6.348-7.533-6.348-5.789 0-8.419 3.042-9.186 4.153a.36.36 0 0 0 .05.465l3.042 2.884a.29.29 0 0 0 .432-.03c.655-.84 2.123-2.186 4.252-2.388q.194-.018.387-.019c1.349 0 2.784.705 2.784 2.009v1.058c0 .11-.081.204-.191.216l-4.643.543c-4.448.526-6.895 2.766-6.895 6.304 0 3.924 2.992 6.664 7.278 6.664 2.289 0 4.268-.748 5.572-2.11l.127-.133.099.154c.791 1.23 2.352 2.048 4.028 2.125a.29.29 0 0 0 .264-.15l2.085-3.739a.288.288 0 0 0-.18-.42zm-7.54-3.18c0 1.765-1.353 2.995-3.289 2.995-1.807 0-2.628-1.164-2.628-2.245 0-1.16.919-1.967 2.52-2.208l3.144-.535a.216.216 0 0 1 .253.214zM100.156 6.148a8 8 0 0 0-1.143-.096c-2.824 0-4.4 1.75-4.978 2.56a.216.216 0 0 1-.385-.071l-.484-1.786a.36.36 0 0 0-.35-.266h-4.258c-.2 0-.362.162-.362.362v20.243c0 .2.163.362.362.362h5.053c.2 0 .361-.162.361-.362v-9.469c0-3.587 1.5-5.404 4.456-5.404.639 0 1.217.063 1.622.12a.36.36 0 0 0 .412-.357V6.508a.36.36 0 0 0-.306-.358z"/><path d="M157.638 6.672a.36.36 0 0 0-.316-.185h-6.007a.29.29 0 0 0-.251.43l7.861 14.087a.72.72 0 0 1 0 .703l-7.861 14.086a.29.29 0 0 0 .251.43h6.007c.131 0 .252-.07.316-.184l7.916-14.185a1.03 1.03 0 0 0 0-.998zM173.669 6.487h-6.054a.36.36 0 0 0-.316.185l-2.238 4.013a.37.37 0 0 0 0 .351l3.03 5.41c.11.198.393.198.503 0l5.327-9.53a.29.29 0 0 0-.252-.431z"/></g><defs><clipPath id="a"><path fill="#fff" d="M0 .615h173.958v35.61H0z"/></clipPath></defs></svg>