<svg xmlns="http://www.w3.org/2000/svg" viewBox="0 0 250 52" role="img" aria-labelledby="title"><title id="title">Motorway</title><path fill="#181614" d="M7 12h8.1l8.5 15.4L32.1 12h8v28h-6.8V24.1l-7.4 13.1h-4.7l-7.4-13.1V40H7V12Zm53.3 28.5c-8.4 0-14.5-6.1-14.5-14.5s6.1-14.5 14.5-14.5S74.8 17.6 74.8 26s-6.1 14.5-14.5 14.5Zm0-6.2c4.3 0 7.4-3.4 7.4-8.3s-3.1-8.3-7.4-8.3-7.4 3.4-7.4 8.3 3.1 8.3 7.4 8.3ZM85.7 18.1h-9.1V12h25.2v6.1h-9.1V40h-7V18.1Zm34.2 22.4c-8.4 0-14.5-6.1-14.5-14.5s6.1-14.5 14.5-14.5 14.5 6.1 14.5 14.5-6.1 14.5-14.5 14.5Zm0-6.2c4.3 0 7.4-3.4 7.4-8.3s-3.1-8.3-7.4-8.3-7.4 3.4-7.4 8.3 3.1 8.3 7.4 8.3ZM139.7 12h14.2c6.7 0 11.1 3.7 11.1 9.5 0 3.8-1.9 6.7-5.2 8.3l6.3 10.2h-7.9l-5.3-9h-6.2v9h-7V12Zm13.5 13.2c2.9 0 4.7-1.4 4.7-3.7s-1.8-3.7-4.7-3.7h-6.5v7.4h6.5Zm15.1-13.2h7.3l5.2 18.2 6-18.2h6.3l6 18.2 5.2-18.2h7.1l-8.8 28h-6.8l-5.9-17.4-5.9 17.4h-6.8l-8.9-28Zm51.9 0h7.2l11.6 28h-7.5l-2.1-5.4h-11.3L216 40h-7.3l11.5-28Zm6.9 16.8-3.4-8.8-3.4 8.8h6.8Z"/></svg>