<svg xmlns="http://www.w3.org/2000/svg" viewBox="0 0 260 52" role="img" aria-labelledby="title"><title id="title">Nordcloud</title><path fill="#181614" d="M7 12h6.6l13.9 16.8V12h7v28h-6.1L14 22.6V40H7V12Zm47.4 28.5c-8.4 0-14.5-6.1-14.5-14.5s6.1-14.5 14.5-14.5S68.9 17.6 68.9 26s-6.1 14.5-14.5 14.5Zm0-6.2c4.3 0 7.4-3.4 7.4-8.3s-3.1-8.3-7.4-8.3S47 21.1 47 26s3.1 8.3 7.4 8.3ZM74.2 12h14.2c6.7 0 11.1 3.7 11.1 9.5 0 3.8-1.9 6.7-5.2 8.3l6.3 10.2h-7.9l-5.3-9h-6.2v9h-7V12Zm13.5 13.2c2.9 0 4.7-1.4 4.7-3.7s-1.8-3.7-4.7-3.7h-6.5v7.4h6.5Zm18.1-13.2h12c8.8 0 14.8 5.5 14.8 14s-6 14-14.8 14h-12V12Zm11.6 21.8c4.8 0 8.1-3 8.1-7.8s-3.3-7.8-8.1-7.8h-4.6v15.6h4.6Zm34.6 6.7c-8.3 0-14.3-6-14.3-14.5s6-14.5 14.3-14.5c5.2 0 9.6 2.4 12.1 6.5l-5.5 3.5c-1.5-2.4-3.7-3.8-6.6-3.8-4.3 0-7.2 3.4-7.2 8.3s2.9 8.3 7.2 8.3c2.9 0 5.1-1.4 6.6-3.8l5.5 3.5c-2.5 4.1-6.9 6.5-12.1 6.5Zm17.1-28.5h7v21.8h16.8V40h-23.8V12Zm42.8 28.5c-8.4 0-14.5-6.1-14.5-14.5s6.1-14.5 14.5-14.5 14.5 6.1 14.5 14.5-6.1 14.5-14.5 14.5Zm0-6.2c4.3 0 7.4-3.4 7.4-8.3s-3.1-8.3-7.4-8.3-7.4 3.4-7.4 8.3 3.1 8.3 7.4 8.3Zm20-22.3h7v16.2c0 3.8 2 6 5.5 6s5.5-2.2 5.5-6V12h7v16.6c0 7.4-4.8 11.9-12.5 11.9s-12.5-4.5-12.5-11.9V12Z"/></svg>